<?xml version="1.0" encoding="utf-8"?>
<!-- Generator: Adobe Illustrator 24.1.3, SVG Export Plug-In . SVG Version: 6.00 Build 0)  -->
<svg version="1.1" id="Layer_1" xmlns="http://www.w3.org/2000/svg" xmlns:xlink="http://www.w3.org/1999/xlink" x="0px" y="0px"
	 viewBox="0 0 150 150" style="enable-background:new 0 0 150 150;" xml:space="preserve">
<style type="text/css">
	.st0{fill:#8B00FF;}
	.st1{fill:#EA00BE;}
	.st2{fill:#FFE000;}
	.st3{fill:none;stroke:#0086FF;stroke-width:3;stroke-linecap:round;stroke-miterlimit:10;}
	.st4{fill:#FF0000;}
</style>
<g>
	<g>
		<path class="st3" d="M16.5,47.5c0,0,2.81,10,11.25,11c9.38,0,11.25-11,11.25-11"/>
		<path class="st3" d="M39,47.5c0,0,2.81,10,11.25,11c9.38,0,11.25-11,11.25-11"/>
		<path class="st3" d="M61.5,47.5c0,0,2.81,10,11.25,11c9.38,0,11.25-11,11.25-11"/>
		<path class="st3" d="M84,47.5c0,0,2.81,10,11.25,11c9.38,0,11.25-11,11.25-11"/>
		<path class="st3" d="M106.5,47.5c0,0,2.81,10,11.25,11c9.38,0,11.25-11,11.25-11"/>
	</g>
	<g>
		<path class="st3" d="M16.5,69.5c0,0,2.81,10,11.25,11c9.38,0,11.25-11,11.25-11"/>
		<path class="st3" d="M39,69.5c0,0,2.81,10,11.25,11c9.38,0,11.25-11,11.25-11"/>
		<path class="st3" d="M61.5,69.5c0,0,2.81,10,11.25,11c9.38,0,11.25-11,11.25-11"/>
		<path class="st3" d="M84,69.5c0,0,2.81,10,11.25,11c9.38,0,11.25-11,11.25-11"/>
		<path class="st3" d="M106.5,69.5c0,0,2.81,10,11.25,11c9.38,0,11.25-11,11.25-11"/>
	</g>
	<g>
		<path class="st3" d="M16.5,91.5c0,0,2.81,10,11.25,11c9.38,0,11.25-11,11.25-11"/>
		<path class="st3" d="M39,91.5c0,0,2.81,10,11.25,11c9.38,0,11.25-11,11.25-11"/>
		<path class="st3" d="M61.5,91.5c0,0,2.81,10,11.25,11c9.38,0,11.25-11,11.25-11"/>
		<path class="st3" d="M84,91.5c0,0,2.81,10,11.25,11c9.38,0,11.25-11,11.25-11"/>
		<path class="st3" d="M106.5,91.5c0,0,2.81,10,11.25,11c9.38,0,11.25-11,11.25-11"/>
	</g>
</g>
</svg>
