<?xml version="1.0" encoding="utf-8"?>
<!-- Generator: Adobe Illustrator 24.1.3, SVG Export Plug-In . SVG Version: 6.00 Build 0)  -->
<svg version="1.1" id="Layer_1" xmlns="http://www.w3.org/2000/svg" xmlns:xlink="http://www.w3.org/1999/xlink" x="0px" y="0px"
	 viewBox="0 0 150 150" style="enable-background:new 0 0 150 150;" xml:space="preserve">
<style type="text/css">
	.st0{fill:#8B00FF;}
	.st1{fill:#EA00BE;}
	.st2{fill:#FFE000;}
	.st3{fill:none;stroke:#0086FF;stroke-width:3;stroke-linecap:round;stroke-miterlimit:10;}
	.st4{fill:#FF0000;}
</style>
<g>
	<path class="st4" d="M50.79,31.42c6.68,0,11.9,8.79,15.11,16.16c3.76,8.64,5.64,17.45,5.66,17.54c0.3,1.4,1.53,2.38,2.93,2.38
		c0.12,0,0.24-0.01,0.36-0.02c1.54-0.19,2.69-1.52,2.64-3.07c-0.87-27.03,18.47-30.64,20.27-30.91c0.23-0.01,0.45-0.01,0.67-0.01
		c4.5,0,8.16,1.51,11.19,4.61c8.29,8.49,8.85,25.89,8.87,29.62c-19.67,34.96-38.64,47.4-43.82,50.32
		c-30.13-20.26-40.35-51.3-41.23-54.14c-3.41-29.02,15.36-32.25,16.44-32.41C50.19,31.44,50.49,31.42,50.79,31.42 M50.79,28.42
		c-0.42,0-0.85,0.02-1.29,0.08c0,0-23,3-19,36c0,0,10,35,44,57c0,0,23-10,47-53c0,0,0.97-38.02-23.06-38.02
		c-0.31,0-0.62,0.01-0.94,0.02c0,0-24,3-23,34C74.5,64.5,66.9,28.42,50.79,28.42L50.79,28.42z"/>
</g>
</svg>
