<?xml version="1.0" encoding="utf-8"?>
<!-- Generator: Adobe Illustrator 24.1.3, SVG Export Plug-In . SVG Version: 6.00 Build 0)  -->
<svg version="1.1" id="Layer_1" xmlns="http://www.w3.org/2000/svg" xmlns:xlink="http://www.w3.org/1999/xlink" x="0px" y="0px"
	 viewBox="0 0 150 150" style="enable-background:new 0 0 150 150;" xml:space="preserve">
<style type="text/css">
	.st0{fill:#8B00FF;}
	.st1{fill:#EA00BE;}
	.st2{fill:#FFE000;}
	.st3{fill:none;stroke:#0086FF;stroke-width:3;stroke-linecap:round;stroke-miterlimit:10;}
	.st4{fill:#FF0000;}
</style>
<g>
	<path d="M110,33c4.96,0,9,4.04,9,9v70c0,4.96-4.04,9-9,9H40c-4.96,0-9-4.04-9-9V42c0-4.96,4.04-9,9-9H110 M110,30H40
		c-6.6,0-12,5.4-12,12v70c0,6.6,5.4,12,12,12h70c6.6,0,12-5.4,12-12V42C122,35.4,116.6,30,110,30L110,30z"/>
</g>
</svg>
