<?xml version="1.0" encoding="utf-8"?>
<!-- Generator: Adobe Illustrator 24.1.3, SVG Export Plug-In . SVG Version: 6.00 Build 0)  -->
<svg version="1.1" id="Layer_1" xmlns="http://www.w3.org/2000/svg" xmlns:xlink="http://www.w3.org/1999/xlink" x="0px" y="0px"
	 viewBox="0 0 150 150" style="enable-background:new 0 0 150 150;" xml:space="preserve">
<style type="text/css">
	.st0{fill:#8B00FF;}
	.st1{fill:#EA00BE;}
	.st2{fill:#FFE000;}
	.st3{fill:none;stroke:#0086FF;stroke-width:3;stroke-linecap:round;stroke-miterlimit:10;}
	.st4{fill:#FF0000;}
</style>
<g>
	<path class="st2" d="M73,24.54l15.89,32.21l0.7,1.41l1.56,0.23l35.54,5.16l-25.72,25.07l-1.13,1.1l0.27,1.55l6.07,35.4L74.4,109.96
		l-1.4-0.73l-1.4,0.73l-31.79,16.71l6.07-35.4l0.27-1.55l-1.13-1.1L19.31,63.55l35.54-5.16l1.56-0.23l0.7-1.41L73,24.54 M73,17.76
		L54.42,55.42l-41.56,6.04l30.07,29.31l-7.1,41.39L73,112.62l37.17,19.54l-7.1-41.39l30.07-29.31l-41.56-6.04L73,17.76L73,17.76z"/>
</g>
</svg>
